<svg xmlns="http://www.w3.org/2000/svg" width="123.294" height="80" viewBox="0 0 123.294 80">
  <path id="Path_13" data-name="Path 13" d="M127.036,19.286h-6.789A2.292,2.292,0,0,0,117.962,17h-2.286a2.292,2.292,0,0,0-2.286,2.286h-6.857A2.292,2.292,0,0,0,104.248,17h-2.286a2.292,2.292,0,0,0-2.286,2.286H97.391A2.292,2.292,0,0,0,95.105,17H92.819a2.292,2.292,0,0,0-2.286,2.286H88.248A2.292,2.292,0,0,0,85.962,17H83.677a2.292,2.292,0,0,0-2.286,2.286H79.105A2.292,2.292,0,0,0,76.819,17H74.534a2.292,2.292,0,0,0-2.286,2.286H19.677a2.286,2.286,0,0,0-4.571,0H8.317A2.293,2.293,0,0,0,6.031,21.64L8.179,94.783A2.294,2.294,0,0,0,10.465,97H124.888a2.294,2.294,0,0,0,2.286-2.217l2.149-73.143A2.293,2.293,0,0,0,127.036,19.286ZM12.819,44.429a6.857,6.857,0,1,1,6.857,6.857A6.848,6.848,0,0,1,12.819,44.429Zm12.571,48a4.571,4.571,0,1,1,4.571-4.571A4.585,4.585,0,0,1,25.391,92.429Zm8-16h-16V74.143h16Zm4.571-25.143a6.857,6.857,0,1,1,6.857-6.857A6.848,6.848,0,0,1,37.962,51.286ZM53.574,92.429a4.571,4.571,0,1,1,4.571-4.571A4.585,4.585,0,0,1,53.574,92.429Zm8-16h-16V74.143h16Zm20.206,16a4.571,4.571,0,1,1,4.571-4.571A4.57,4.57,0,0,1,81.779,92.429Zm8-16h-16V74.143h16Zm20.183,16a4.571,4.571,0,1,1,4.571-4.571A4.585,4.585,0,0,1,109.962,92.429Zm8-16h-16V74.143h16Zm0-13.714A2.292,2.292,0,0,1,115.676,65H53.962a2.292,2.292,0,0,1-2.286-2.286V26.143a2.292,2.292,0,0,1,2.286-2.286h61.714a2.292,2.292,0,0,1,2.286,2.286Z" transform="translate(-6.029 -17)" fill="#d8d8d8" opacity="0.659"/>
</svg>
