<svg xmlns="http://www.w3.org/2000/svg" width="30.373" height="64" viewBox="0 0 30.373 64">
  <path id="Path_16" data-name="Path 16" d="M48.288,35.458V10.508A6.514,6.514,0,0,0,41.78,4H26.593a6.514,6.514,0,0,0-6.508,6.508V35.458A1.088,1.088,0,0,0,19,36.542v5.424a1.088,1.088,0,0,0,1.085,1.085V56.068l7.593,4.339h2.169v3.254h1.085V68h6.508V63.661h1.085V60.407h2.169l7.593-4.339V43.051a1.088,1.088,0,0,0,1.085-1.085V36.542A1.088,1.088,0,0,0,48.288,35.458ZM37.441,7.254a1.085,1.085,0,1,1-1.085,1.085A1.088,1.088,0,0,1,37.441,7.254Zm0,4.339a1.085,1.085,0,1,1-1.085,1.085A1.088,1.088,0,0,1,37.441,11.593Zm0,4.339a1.085,1.085,0,1,1-1.085,1.085A1.088,1.088,0,0,1,37.441,15.932Zm0,4.339a1.085,1.085,0,1,1-1.085,1.085A1.088,1.088,0,0,1,37.441,20.271Zm0,4.339a1.085,1.085,0,1,1-1.085,1.085A1.088,1.088,0,0,1,37.441,24.61Zm0,4.339a1.085,1.085,0,1,1-1.085,1.085A1.088,1.088,0,0,1,37.441,28.949Zm0,4.339a1.085,1.085,0,1,1-1.085,1.085A1.088,1.088,0,0,1,37.441,33.288Zm-3.254-28.2A1.085,1.085,0,1,1,33.1,6.169,1.088,1.088,0,0,1,34.186,5.085Zm0,4.339A1.085,1.085,0,1,1,33.1,10.508,1.088,1.088,0,0,1,34.186,9.424Zm0,4.339A1.085,1.085,0,1,1,33.1,14.847,1.088,1.088,0,0,1,34.186,13.763Zm0,4.339A1.085,1.085,0,1,1,33.1,19.186,1.088,1.088,0,0,1,34.186,18.1Zm0,4.339A1.085,1.085,0,1,1,33.1,23.525,1.088,1.088,0,0,1,34.186,22.441Zm0,4.339A1.085,1.085,0,1,1,33.1,27.864,1.088,1.088,0,0,1,34.186,26.78Zm0,4.339A1.085,1.085,0,1,1,33.1,32.2,1.088,1.088,0,0,1,34.186,31.119ZM30.932,7.254a1.085,1.085,0,1,1-1.085,1.085A1.088,1.088,0,0,1,30.932,7.254Zm0,4.339a1.085,1.085,0,1,1-1.085,1.085A1.088,1.088,0,0,1,30.932,11.593Zm0,4.339a1.085,1.085,0,1,1-1.085,1.085A1.088,1.088,0,0,1,30.932,15.932Zm0,4.339a1.085,1.085,0,1,1-1.085,1.085A1.088,1.088,0,0,1,30.932,20.271Zm0,4.339a1.085,1.085,0,1,1-1.085,1.085A1.088,1.088,0,0,1,30.932,24.61Zm0,4.339a1.085,1.085,0,1,1-1.085,1.085A1.088,1.088,0,0,1,30.932,28.949Zm0,4.339a1.085,1.085,0,1,1-1.085,1.085A1.088,1.088,0,0,1,30.932,33.288Zm-6.508,2.169a1.085,1.085,0,1,1,1.085-1.085A1.088,1.088,0,0,1,24.424,35.458Zm0-4.339a1.085,1.085,0,1,1,1.085-1.085A1.088,1.088,0,0,1,24.424,31.119Zm0-4.339a1.085,1.085,0,1,1,1.085-1.085A1.088,1.088,0,0,1,24.424,26.78Zm0-4.339a1.085,1.085,0,1,1,1.085-1.085A1.088,1.088,0,0,1,24.424,22.441Zm0-4.339a1.085,1.085,0,1,1,1.085-1.085A1.088,1.088,0,0,1,24.424,18.1Zm0-4.339a1.085,1.085,0,1,1,1.085-1.085A1.088,1.088,0,0,1,24.424,13.763Zm0-4.339a1.085,1.085,0,1,1,1.085-1.085A1.088,1.088,0,0,1,24.424,9.424Zm3.254,23.864A1.085,1.085,0,1,1,28.763,32.2,1.088,1.088,0,0,1,27.678,33.288Zm0-4.339a1.085,1.085,0,1,1,1.085-1.085A1.088,1.088,0,0,1,27.678,28.949Zm0-4.339a1.085,1.085,0,1,1,1.085-1.085A1.088,1.088,0,0,1,27.678,24.61Zm0-4.339a1.085,1.085,0,1,1,1.085-1.085A1.088,1.088,0,0,1,27.678,20.271Zm0-4.339a1.085,1.085,0,1,1,1.085-1.085A1.088,1.088,0,0,1,27.678,15.932Zm0-4.339a1.085,1.085,0,1,1,1.085-1.085A1.088,1.088,0,0,1,27.678,11.593Zm0-4.339a1.085,1.085,0,1,1,1.085-1.085A1.088,1.088,0,0,1,27.678,7.254Zm6.508,46.9-4.6-4.6,4.6-4.6,4.6,4.6Zm6.508-20.871A1.085,1.085,0,1,1,41.78,32.2,1.088,1.088,0,0,1,40.695,33.288Zm0-4.339a1.085,1.085,0,1,1,1.085-1.085A1.088,1.088,0,0,1,40.695,28.949Zm0-4.339a1.085,1.085,0,1,1,1.085-1.085A1.088,1.088,0,0,1,40.695,24.61Zm0-4.339a1.085,1.085,0,1,1,1.085-1.085A1.088,1.088,0,0,1,40.695,20.271Zm0-4.339a1.085,1.085,0,1,1,1.085-1.085A1.088,1.088,0,0,1,40.695,15.932Zm0-4.339a1.085,1.085,0,1,1,1.085-1.085A1.088,1.088,0,0,1,40.695,11.593Zm0-4.339A1.085,1.085,0,1,1,41.78,6.169,1.088,1.088,0,0,1,40.695,7.254Zm3.254,28.2a1.085,1.085,0,1,1,1.085-1.085A1.088,1.088,0,0,1,43.949,35.458Zm0-4.339a1.085,1.085,0,1,1,1.085-1.085A1.088,1.088,0,0,1,43.949,31.119Zm0-4.339a1.085,1.085,0,1,1,1.085-1.085A1.088,1.088,0,0,1,43.949,26.78Zm0-4.339a1.085,1.085,0,1,1,1.085-1.085A1.088,1.088,0,0,1,43.949,22.441Zm0-4.339a1.085,1.085,0,1,1,1.085-1.085A1.088,1.088,0,0,1,43.949,18.1Zm0-4.339a1.085,1.085,0,1,1,1.085-1.085A1.088,1.088,0,0,1,43.949,13.763Zm0-4.339a1.085,1.085,0,1,1,1.085-1.085A1.088,1.088,0,0,1,43.949,9.424Z" transform="translate(-19 -4)" fill="#757a8d"/>
</svg>
