<svg xmlns="http://www.w3.org/2000/svg" viewBox="0 0 64 64">
  <defs>
    <style>
      .cls-1 {
        fill: #ff3e3e;
      }
    </style>
  </defs>
  <title>gigboardHint_icons</title>
  <g id="gigboard">
    <path class="cls-1" d="M62.81,12.42H59.29a1.18,1.18,0,0,0-1.19-1.18H56.92a1.18,1.18,0,0,0-1.19,1.18H52.17A1.18,1.18,0,0,0,51,11.24H49.8a1.18,1.18,0,0,0-1.19,1.18H47.42a1.18,1.18,0,0,0-1.18-1.18H45.05a1.19,1.19,0,0,0-1.19,1.18H42.68a1.19,1.19,0,0,0-1.19-1.18H40.31a1.18,1.18,0,0,0-1.19,1.18H37.93a1.18,1.18,0,0,0-1.18-1.18H35.56a1.19,1.19,0,0,0-1.19,1.18H7.08a1.19,1.19,0,0,0-2.37,0H1.19A1.2,1.2,0,0,0,0,13.65l1.12,38A1.18,1.18,0,0,0,2.3,52.76H61.7a1.18,1.18,0,0,0,1.18-1.15l1.12-38A1.2,1.2,0,0,0,62.81,12.42ZM3.52,25.47A3.56,3.56,0,1,1,7.08,29,3.56,3.56,0,0,1,3.52,25.47Zm6.53,24.92A2.38,2.38,0,1,1,12.42,48,2.38,2.38,0,0,1,10.05,50.39Zm4.15-8.3H5.9V40.9h8.3ZM16.58,29a3.56,3.56,0,1,1,3.56-3.56A3.56,3.56,0,0,1,16.58,29Zm8.1,21.36A2.38,2.38,0,1,1,27.05,48,2.38,2.38,0,0,1,24.68,50.39Zm4.15-8.3h-8.3V40.9h8.3Zm10.49,8.3A2.38,2.38,0,1,1,41.69,48,2.37,2.37,0,0,1,39.32,50.39Zm4.15-8.3h-8.3V40.9h8.3ZM54,50.39A2.38,2.38,0,1,1,56.32,48,2.38,2.38,0,0,1,54,50.39Zm4.15-8.3H49.8V40.9h8.3Zm0-7.12a1.18,1.18,0,0,1-1.18,1.18h-32A1.19,1.19,0,0,1,23.69,35V16a1.19,1.19,0,0,1,1.19-1.18h32A1.18,1.18,0,0,1,58.1,16Z"/>
  </g>
</svg>
