<svg xmlns="http://www.w3.org/2000/svg" viewBox="0 0 64 64">
  <defs>
    <style>
      .cls-1, .cls-2, .cls-3 {
        fill: #ff3e3e;
      }

      .cls-1 {
        opacity: 0.27;
      }

      .cls-3 {
        opacity: 0.15;
      }
    </style>
  </defs>
  <title>gigboardHint_icons</title>
  <g id="Speaker">
    <g>
      <path class="cls-1" d="M32,21A16,16,0,1,0,48,37,16,16,0,0,0,32,21Zm0,24a8,8,0,1,1,8-8A8,8,0,0,1,32,45Z"/>
      <path class="cls-2" d="M8,2V62a2,2,0,0,0,2,2H54a2,2,0,0,0,2-2V2a2,2,0,0,0-2-2H10A2,2,0,0,0,8,2ZM47,6a4,4,0,1,1-4,4A4,4,0,0,1,47,6ZM17,6a4,4,0,1,1-4,4A4,4,0,0,1,17,6ZM32,59c-11.6,0-21-9.85-21-22s9.4-22,21-22,21,9.85,21,22S43.6,59,32,59Z"/>
      <path class="cls-3" d="M32,21A16,16,0,1,0,48,37,16,16,0,0,0,32,21Zm0,24a8,8,0,1,1,8-8A8,8,0,0,1,32,45Z"/>
      <path class="cls-2" d="M32,21A16,16,0,1,0,48,37,16,16,0,0,0,32,21Zm0,24a8,8,0,1,1,8-8A8,8,0,0,1,32,45Z"/>
    </g>
  </g>
</svg>
