<svg id="Tube_Icon" data-name="Tube Icon" xmlns="http://www.w3.org/2000/svg" viewBox="0 0 64 64">
  <defs>
    <style>
      .cls-1 {
        fill: #ff3e3e;
      }
    </style>
  </defs>
  <title>gigboardHint_icons</title>
  <path class="cls-1" d="M42.86,3.12,42.65,3a20.61,20.61,0,0,0-21.59.12A8.76,8.76,0,0,0,17,10.51V40.45a3.13,3.13,0,0,0,2.06,3,1.1,1.1,0,0,0,0,.18v9.77a1,1,0,0,0,1,1h.61V63a1,1,0,0,0,1,1h1a1,1,0,0,0,1-1V54.36h3.57V63a1,1,0,0,0,1,1h1a1,1,0,0,0,1-1V54.36h3.56V63a1,1,0,0,0,1,1h1a1,1,0,0,0,1-1V54.36h3.57V63a1,1,0,0,0,1,1h1a1,1,0,0,0,1-1V54.36H44a1,1,0,0,0,1-1V43.59a1.1,1.1,0,0,0,0-.18,3.13,3.13,0,0,0,2.06-3V10.56A8.72,8.72,0,0,0,42.86,3.12ZM45,40.45a1.11,1.11,0,0,1-1.07,1.14H40.19V17.82a2,2,0,0,0-2-2h-2a2,2,0,0,0-2,2V41.59H29.81V17.82a2,2,0,0,0-2-2h-2a2,2,0,0,0-2,2V41.59H20.07A1.11,1.11,0,0,1,19,40.45V10.51a6.73,6.73,0,0,1,3.11-5.7,18.6,18.6,0,0,1,19.5-.1l.22.12A6.73,6.73,0,0,1,45,10.56Z"/>
</svg>
