<svg xmlns="http://www.w3.org/2000/svg" viewBox="0 0 64 64">
  <defs>
    <style>
      .cls-1 {
        fill: #ff3e3e;
      }
    </style>
  </defs>
  <title>gigboardHint_icons</title>
  <g id="guitar_cab" data-name="guitar cab">
    <g>
      <path class="cls-1" d="M58.25,6.4H44.44a1.52,1.52,0,0,0-1.39-1C41.77,3.78,38.8,1.7,32,1.7S22.23,3.78,21,5.37a1.52,1.52,0,0,0-1.39,1H5.75A5.75,5.75,0,0,0,0,12.15v44.4A5.75,5.75,0,0,0,5.75,62.3h52.5A5.75,5.75,0,0,0,64,56.55V12.15A5.75,5.75,0,0,0,58.25,6.4ZM32,4.84a18.07,18.07,0,0,1,5.89.81,1.42,1.42,0,0,0-.57.75H26.68a1.54,1.54,0,0,0-.56-.75A18.09,18.09,0,0,1,32,4.84ZM6.93,56A1,1,0,1,1,8,55,1,1,0,0,1,6.93,56Zm0-8.36a1,1,0,1,1,1-1A1,1,0,0,1,6.93,47.67Zm0-8.36a1,1,0,1,1,1-1A1,1,0,0,1,6.93,39.31Zm0-8.35a1,1,0,1,1,1-1.05A1,1,0,0,1,6.93,31Zm4.18,20.89a1,1,0,1,1,1-1A1,1,0,0,1,11.11,51.85Zm0-8.36a1,1,0,1,1,1-1A1,1,0,0,1,11.11,43.49Zm0-8.36a1,1,0,1,1,1-1A1,1,0,0,1,11.11,35.13Zm0-8.35a1,1,0,1,1,1-1.05A1,1,0,0,1,11.11,26.78ZM15.28,56a1,1,0,1,1,1-1.05A1,1,0,0,1,15.28,56Zm0-8.36a1,1,0,1,1,1-1A1,1,0,0,1,15.28,47.67Zm0-8.36a1,1,0,1,1,1-1A1,1,0,0,1,15.28,39.31Zm0-8.35a1,1,0,1,1,1-1.05A1,1,0,0,1,15.28,31Zm4.18,20.89a1,1,0,1,1,1.05-1A1,1,0,0,1,19.46,51.85Zm0-8.36a1,1,0,1,1,1.05-1A1,1,0,0,1,19.46,43.49Zm0-8.36a1,1,0,1,1,1.05-1A1,1,0,0,1,19.46,35.13Zm0-8.35a1,1,0,1,1,1.05-1.05A1,1,0,0,1,19.46,26.78ZM23.64,56A1,1,0,1,1,24.69,55,1,1,0,0,1,23.64,56Zm0-8.36a1,1,0,1,1,1.05-1A1,1,0,0,1,23.64,47.67Zm0-8.36a1,1,0,1,1,1.05-1A1,1,0,0,1,23.64,39.31Zm0-8.35a1,1,0,1,1,1.05-1.05A1,1,0,0,1,23.64,31Zm4.18,20.89a1,1,0,1,1,1.05-1A1,1,0,0,1,27.82,51.85Zm0-8.36a1,1,0,1,1,1.05-1A1,1,0,0,1,27.82,43.49Zm0-8.36a1,1,0,1,1,1.05-1A1,1,0,0,1,27.82,35.13Zm0-8.35a1,1,0,1,1,1.05-1.05A1,1,0,0,1,27.82,26.78ZM32,56A1,1,0,1,1,33,55,1,1,0,0,1,32,56Zm0-8.36a1,1,0,1,1,1-1A1,1,0,0,1,32,47.67Zm0-8.36a1,1,0,1,1,1-1A1,1,0,0,1,32,39.31ZM32,31a1,1,0,1,1,1-1.05A1,1,0,0,1,32,31Zm4.18,20.89a1,1,0,1,1,1-1A1,1,0,0,1,36.18,51.85Zm0-8.36a1,1,0,1,1,1-1A1,1,0,0,1,36.18,43.49Zm0-8.36a1,1,0,1,1,1-1A1,1,0,0,1,36.18,35.13Zm0-8.35a1,1,0,1,1,1-1.05A1,1,0,0,1,36.18,26.78ZM40.36,56a1,1,0,1,1,1-1.05A1,1,0,0,1,40.36,56Zm0-8.36a1,1,0,1,1,1-1A1,1,0,0,1,40.36,47.67Zm0-8.36a1,1,0,1,1,1-1A1,1,0,0,1,40.36,39.31Zm0-8.35a1,1,0,1,1,1-1.05A1,1,0,0,1,40.36,31Zm4.18,20.89a1,1,0,1,1,1-1A1,1,0,0,1,44.54,51.85Zm0-8.36a1,1,0,1,1,1-1A1,1,0,0,1,44.54,43.49Zm0-8.36a1,1,0,1,1,1-1A1,1,0,0,1,44.54,35.13Zm0-8.35a1,1,0,1,1,1-1.05A1,1,0,0,1,44.54,26.78ZM48.72,56a1,1,0,1,1,1-1.05A1,1,0,0,1,48.72,56Zm0-8.36a1,1,0,1,1,1-1A1,1,0,0,1,48.72,47.67Zm0-8.36a1,1,0,1,1,1-1A1,1,0,0,1,48.72,39.31Zm0-8.35a1,1,0,1,1,1-1.05A1,1,0,0,1,48.72,31Zm4.17,20.89a1,1,0,1,1,1-1A1,1,0,0,1,52.89,51.85Zm0-8.36a1,1,0,1,1,1-1A1,1,0,0,1,52.89,43.49Zm0-8.36a1,1,0,1,1,1-1A1,1,0,0,1,52.89,35.13Zm0-8.35a1,1,0,1,1,1-1.05A1,1,0,0,1,52.89,26.78ZM57.07,56a1,1,0,1,1,1-1.05A1,1,0,0,1,57.07,56Zm0-8.36a1,1,0,1,1,1-1A1,1,0,0,1,57.07,47.67Zm0-8.36a1,1,0,1,1,1-1A1,1,0,0,1,57.07,39.31Zm0-8.35a1,1,0,1,1,1-1.05A1,1,0,0,1,57.07,31Zm3.8-12H3.13V12.15A2.61,2.61,0,0,1,5.75,9.54h52.5a2.61,2.61,0,0,1,2.62,2.61Z"/>
      <g>
        <circle class="cls-1" cx="7.45" cy="14.24" r="2.09"/>
        <circle class="cls-1" cx="48.64" cy="14.24" r="2.09"/>
        <circle class="cls-1" cx="41.78" cy="14.24" r="2.09"/>
        <circle class="cls-1" cx="34.91" cy="14.24" r="2.09"/>
        <circle class="cls-1" cx="28.04" cy="14.24" r="2.09"/>
        <rect class="cls-1" x="19.61" y="11.63" width="3.13" height="5.22"/>
        <rect class="cls-1" x="53.94" y="11.63" width="3.13" height="5.22"/>
        <rect class="cls-1" x="12.75" y="11.63" width="3.13" height="5.22"/>
      </g>
    </g>
  </g>
</svg>
