<svg xmlns="http://www.w3.org/2000/svg" width="64" height="41.527" viewBox="0 0 64 41.527">
  <path id="Path_15" data-name="Path 15" d="M68.842,18.186H65.318A1.19,1.19,0,0,0,64.132,17H62.945a1.19,1.19,0,0,0-1.186,1.186H58.2A1.19,1.19,0,0,0,57.013,17H55.827a1.19,1.19,0,0,0-1.186,1.186H53.454A1.19,1.19,0,0,0,52.267,17H51.081a1.19,1.19,0,0,0-1.186,1.186H48.708A1.19,1.19,0,0,0,47.521,17H46.335a1.19,1.19,0,0,0-1.186,1.186H43.962A1.19,1.19,0,0,0,42.775,17H41.589A1.19,1.19,0,0,0,40.4,18.186H13.113a1.186,1.186,0,0,0-2.373,0H7.217A1.19,1.19,0,0,0,6.03,19.409L7.145,57.376a1.191,1.191,0,0,0,1.186,1.151H67.727a1.191,1.191,0,0,0,1.186-1.151l1.115-37.967A1.19,1.19,0,0,0,68.842,18.186ZM9.554,31.238A3.559,3.559,0,1,1,13.113,34.8,3.555,3.555,0,0,1,9.554,31.238ZM16.08,56.154a2.373,2.373,0,1,1,2.373-2.373A2.38,2.38,0,0,1,16.08,56.154Zm4.153-8.305H11.927V46.662h8.305ZM22.605,34.8a3.559,3.559,0,1,1,3.559-3.559A3.555,3.555,0,0,1,22.605,34.8Zm8.1,21.357a2.373,2.373,0,1,1,2.373-2.373A2.38,2.38,0,0,1,30.709,56.154Zm4.153-8.305H26.556V46.662h8.305ZM45.35,56.154a2.373,2.373,0,1,1,2.373-2.373A2.372,2.372,0,0,1,45.35,56.154ZM49.5,47.848H41.2V46.662H49.5Zm10.477,8.305a2.373,2.373,0,1,1,2.373-2.373A2.38,2.38,0,0,1,59.979,56.154Zm4.153-8.305H55.827V46.662h8.305Zm0-7.119a1.19,1.19,0,0,1-1.186,1.186H30.911a1.19,1.19,0,0,1-1.186-1.186V21.746a1.19,1.19,0,0,1,1.186-1.186H62.945a1.19,1.19,0,0,1,1.186,1.186Z" transform="translate(-6.029 -17)" fill="#757a8d"/>
</svg>
