<svg xmlns="http://www.w3.org/2000/svg" viewBox="0 0 64 64">
  <defs>
    <style>
      .cls-1 {
        fill: #ff3e3e;
      }
    </style>
  </defs>
  <title>gigboardHint_icons</title>
  <g id="Links">
    <g>
      <g>
        <path class="cls-1" d="M62.56,11,53,1.44a4.9,4.9,0,0,0-6.94,0L28.75,18.78a4.89,4.89,0,0,0,0,6.93l2.17,2.17,3.46-3.47-2.16-2.16L49.56,4.91l9.53,9.53L41.75,31.78l-2.16-2.16-3.47,3.46,2.17,2.17a4.89,4.89,0,0,0,6.93,0L62.56,17.91A4.9,4.9,0,0,0,62.56,11Z"/>
        <path class="cls-1" d="M35.25,38.29l-2.17-2.17-3.46,3.47,2.16,2.16L14.44,59.09,4.91,49.56,22.25,32.22l2.16,2.16,3.47-3.46-2.17-2.17a4.89,4.89,0,0,0-6.93,0L1.44,46.09a4.9,4.9,0,0,0,0,6.94L11,62.56a4.9,4.9,0,0,0,6.94,0L35.25,45.22A4.89,4.89,0,0,0,35.25,38.29Z"/>
      </g>
      <path class="cls-1" d="M44.14,23.33,23.33,44.14a2.45,2.45,0,0,1-3.47-3.47L40.67,19.86a2.45,2.45,0,0,1,3.47,3.47Z"/>
    </g>
  </g>
</svg>
