<svg xmlns="http://www.w3.org/2000/svg" viewBox="0 0 64 64">
  <defs>
    <style>
      .cls-1 {
        fill: #ff3e3e;
      }
    </style>
  </defs>
  <title>gigboardHint_icons</title>
  <g id="pedal">
    <path class="cls-1" d="M24,17.13h0l-.09,0Z"/>
    <path class="cls-1" d="M29,21a3.44,3.44,0,0,1,0,.46,2,2,0,0,1-.06.35,2.11,2.11,0,0,1-.09.36,3.62,3.62,0,0,1-.13.35,3.84,3.84,0,0,1-.58.95A4,4,0,0,0,26,17.16v0A4,4,0,0,1,29,21Z"/>
    <path class="cls-1" d="M31.22,9.19a4,4,0,0,0,0,5.66,1.45,1.45,0,0,0,.22.21,1.2,1.2,0,0,1-.26-.24l-.05-.05a3,3,0,0,1-.24-.26,1.61,1.61,0,0,1-.21-.3.38.38,0,0,1-.08-.11,2.32,2.32,0,0,1-.21-.38,4.06,4.06,0,0,1-.3-.87,2.63,2.63,0,0,1-.06-.39A3.44,3.44,0,0,1,30,12a4,4,0,0,1,3-3.87v0A4,4,0,0,0,31.22,9.19Z"/>
    <path class="cls-1" d="M34.05,16a2.68,2.68,0,0,0,.4,0L34,16h0Z"/>
    <path class="cls-1" d="M35.09,8.16l-.09,0h0Z"/>
    <path class="cls-1" d="M34.51,16a3.42,3.42,0,0,0,.72-.16,3,3,0,0,1-.43.12A1.45,1.45,0,0,1,34.51,16Z"/>
    <path class="cls-1" d="M33.39,16l.22,0h0Z"/>
    <path class="cls-1" d="M36.87,14.85a3.65,3.65,0,0,1-.3.27l-.32.23h0a2,2,0,0,1-.34.2l-.27.12-.36.14h0l0,0-.3.08a1.8,1.8,0,0,1-.32.06,3.39,3.39,0,0,1-.55,0,1.83,1.83,0,0,1-.33,0l-.11,0h.9a2.14,2.14,0,0,0,.35-.06h0l.35-.1a1.75,1.75,0,0,0,.32-.12l.33-.15a4,4,0,0,0,1.65-1.64,3,3,0,0,0,.25-.61A3.63,3.63,0,0,0,38,12a4,4,0,0,0-.53-2l0,0A4,4,0,0,1,36.87,14.85Z"/>
    <path class="cls-1" d="M25,25a3.65,3.65,0,0,0,.66,0c-.2,0-.41,0-.61,0Z"/>
    <path class="cls-1" d="M24.53,25l-.37,0a4.68,4.68,0,0,1-.73-.21,2.52,2.52,0,0,1-.34-.15h0a3.85,3.85,0,0,1-.65-.43l-.3-.27A4,4,0,0,1,21.51,19l0,0A4,4,0,0,0,21,21a3.84,3.84,0,0,0,.09.83,2.25,2.25,0,0,0,.09.35,2.32,2.32,0,0,0,.13.37,2.4,2.4,0,0,0,.11.23,2.69,2.69,0,0,0,.16.29,2.11,2.11,0,0,0,.21.31,2,2,0,0,0,.23.28,3.07,3.07,0,0,0,.25.26,2,2,0,0,0,.27.23l.29.2.3.18.34.16a3,3,0,0,0,.36.13A4.15,4.15,0,0,0,24.53,25Z"/>
    <path class="cls-1" d="M25,25h0Zm-1.12-.17a3,3,0,0,1-.36-.13l-.34-.16-.3-.18-.29-.2a3.23,3.23,0,0,1-.27-.23L22,23.66a3.11,3.11,0,0,1-.23-.28,3.37,3.37,0,0,1-.21-.31,2.69,2.69,0,0,1-.16-.29,2.4,2.4,0,0,1-.11-.23c0-.12-.09-.24-.13-.37a2.25,2.25,0,0,1-.09-.35A3.84,3.84,0,0,1,21,21a4,4,0,0,1,.53-2l0,0a4,4,0,0,0,.62,4.86l.3.27a3.85,3.85,0,0,0,.65.43h0l.34.16a2.65,2.65,0,0,0,.37.12l.36.08.37,0A4.15,4.15,0,0,1,23.83,24.82ZM37.49,10l0,0A4,4,0,0,1,38,12a3.63,3.63,0,0,1-.22,1.28,3,3,0,0,1-.25.61,4,4,0,0,1-1.65,1.64l-.33.15a1.75,1.75,0,0,1-.32.12l-.35.1.38-.08h0l.36-.14.27-.12a2,2,0,0,0,.34-.2h0l.32-.23a3.65,3.65,0,0,0,.3-.27A4,4,0,0,0,37.49,10Zm-3,6a1.45,1.45,0,0,0,.29,0h.06A2.14,2.14,0,0,1,34.51,16Zm-.68,0h0Z"/>
    <path class="cls-1" d="M23.09,24.56l.34.16h0A2.52,2.52,0,0,1,23.09,24.56Zm8.13-9.71,0,0a1.2,1.2,0,0,0,.26.24A1.45,1.45,0,0,1,31.22,14.85Z"/>
    <path class="cls-1" d="M52.24,24.82h-.65V2.61A2.62,2.62,0,0,0,49,0H15a2.62,2.62,0,0,0-2.61,2.61V24.82h-.65a.64.64,0,0,0-.66.65v7.84a.65.65,0,0,0,.66.65h.65V61.39A2.62,2.62,0,0,0,15,64H49a2.62,2.62,0,0,0,2.61-2.61V34h.65a.65.65,0,0,0,.66-.65V25.47A.64.64,0,0,0,52.24,24.82ZM25.43,20.19a2.21,2.21,0,0,1-.08.46,1.8,1.8,0,0,1-.12.47,1.6,1.6,0,0,1-.17.46A4.22,4.22,0,0,1,24,23.21l0,.05a.12.12,0,0,1-.05,0s0,0-.06.06l0,0a1.62,1.62,0,0,1-.19.18,3.09,3.09,0,0,1-.31.25,2.3,2.3,0,0,1-.33.21,2.27,2.27,0,0,1-.34.19,1.5,1.5,0,0,1-.34.16,2.07,2.07,0,0,1-.47.18,5.23,5.23,0,0,1-.76.18,4.74,4.74,0,0,1-2.36-.15,3.11,3.11,0,0,1-.49-.16,4.39,4.39,0,0,1-.44-.21h0a5,5,0,0,1-.85-.56q-.2-.17-.39-.36A5.2,5.2,0,0,1,15.69,17l3.58,3.58.94-1,.9-.9-2.17-2.15-1.41-1.42.09,0a2.49,2.49,0,0,1,.51-.27l.08,0a3.16,3.16,0,0,1,.61-.22l.12,0h0a5,5,0,0,1,2.61,0v0a5.2,5.2,0,0,1,3.92,5.05A3.86,3.86,0,0,1,25.43,20.19ZM32,54.86a5.23,5.23,0,1,1,5.22-5.23A5.22,5.22,0,0,1,32,54.86ZM30.69,39.18A1.31,1.31,0,1,1,32,40.49,1.31,1.31,0,0,1,30.69,39.18Zm5.06-27.62a4.1,4.1,0,0,1-.39.35l-.42.32h0a3.47,3.47,0,0,1-.45.26,2.63,2.63,0,0,1-.35.15,2.32,2.32,0,0,1-.47.19h0l-.06,0a4.8,4.8,0,0,1-.81.19,5.65,5.65,0,0,1-.71.05,2.17,2.17,0,0,1-.44,0A2.18,2.18,0,0,1,31.2,13a6.8,6.8,0,0,1-.75-.18,1.93,1.93,0,0,1-.47-.19,1.75,1.75,0,0,1-.34-.15,1.9,1.9,0,0,1-.34-.2h0a.71.71,0,0,1-.17-.11.51.51,0,0,1-.13-.09A.15.15,0,0,1,28.9,12a.94.94,0,0,1-.2-.16l0,0a1.45,1.45,0,0,1-.34-.31l-.07-.07a3.19,3.19,0,0,1-.31-.33,1.91,1.91,0,0,1-.28-.4.61.61,0,0,1-.1-.14,2.69,2.69,0,0,1-.28-.5A5.79,5.79,0,0,1,26.89,9a4.5,4.5,0,0,1-.08-.51,5.88,5.88,0,0,1,0-.6,5.22,5.22,0,0,1,3.91-5.06v0a5.06,5.06,0,0,1,2.62,0v0l.11,0A3.52,3.52,0,0,1,34,3a.15.15,0,0,1,.08,0,2.45,2.45,0,0,1,.51.26l.09,0L33.31,4.78,31.14,6.94l.9.9.94.95,3.58-3.58A5.22,5.22,0,0,1,35.75,11.56Zm7.35,12.6a5.22,5.22,0,0,1-1.3-10.28v5.06h2.61V13.88A5.22,5.22,0,0,1,43.1,24.16Z"/>
  </g>
</svg>
