<svg xmlns="http://www.w3.org/2000/svg" viewBox="0 0 64 64">
  <defs>
    <style>
      .cls-1 {
        fill: #ff3e3e;
      }
    </style>
  </defs>
  <title>gigboardHint_icons</title>
  <g id="Microphone">
    <g id="Microphone-2" data-name="Microphone">
      <path class="cls-1" d="M46.1,31.46v-25A6.52,6.52,0,0,0,39.59,0H24.41A6.52,6.52,0,0,0,17.9,6.51v25a1.09,1.09,0,0,0-1.09,1.08V38a1.09,1.09,0,0,0,1.09,1.08v13l7.59,4.34h2.17v3.25h1.09V64h6.5V59.66h1.09V56.41h2.17l7.59-4.34v-13A1.09,1.09,0,0,0,47.19,38V32.54A1.09,1.09,0,0,0,46.1,31.46ZM35.25,3.25a1.09,1.09,0,1,1-1.08,1.09A1.09,1.09,0,0,1,35.25,3.25Zm0,4.34a1.09,1.09,0,1,1-1.08,1.09A1.09,1.09,0,0,1,35.25,7.59Zm0,4.34A1.09,1.09,0,1,1,34.17,13,1.09,1.09,0,0,1,35.25,11.93Zm0,4.34a1.09,1.09,0,1,1-1.08,1.09A1.09,1.09,0,0,1,35.25,16.27Zm0,4.34a1.09,1.09,0,1,1-1.08,1.08A1.09,1.09,0,0,1,35.25,20.61Zm0,4.34A1.09,1.09,0,1,1,34.17,26,1.09,1.09,0,0,1,35.25,25Zm0,4.34a1.09,1.09,0,1,1-1.08,1.08A1.09,1.09,0,0,1,35.25,29.29ZM32,1.08a1.09,1.09,0,1,1-1.08,1.09A1.08,1.08,0,0,1,32,1.08Zm0,4.34a1.09,1.09,0,1,1-1.08,1.09A1.08,1.08,0,0,1,32,5.42Zm0,4.34a1.09,1.09,0,1,1-1.08,1.09A1.08,1.08,0,0,1,32,9.76Zm0,4.34a1.09,1.09,0,1,1-1.08,1.09A1.08,1.08,0,0,1,32,14.1Zm0,4.34a1.09,1.09,0,1,1-1.08,1.09A1.08,1.08,0,0,1,32,18.44Zm0,4.34a1.09,1.09,0,1,1-1.08,1.08A1.08,1.08,0,0,1,32,22.78Zm0,4.34a1.09,1.09,0,1,1-1.08,1.08A1.08,1.08,0,0,1,32,27.12ZM28.75,3.25a1.09,1.09,0,1,1-1.09,1.09A1.09,1.09,0,0,1,28.75,3.25Zm0,4.34a1.09,1.09,0,1,1-1.09,1.09A1.09,1.09,0,0,1,28.75,7.59Zm0,4.34A1.09,1.09,0,1,1,27.66,13,1.09,1.09,0,0,1,28.75,11.93Zm0,4.34a1.09,1.09,0,1,1-1.09,1.09A1.09,1.09,0,0,1,28.75,16.27Zm0,4.34a1.09,1.09,0,1,1-1.09,1.08A1.09,1.09,0,0,1,28.75,20.61Zm0,4.34A1.09,1.09,0,1,1,27.66,26,1.09,1.09,0,0,1,28.75,25Zm0,4.34a1.09,1.09,0,1,1-1.09,1.08A1.09,1.09,0,0,1,28.75,29.29Zm-6.51,2.17a1.09,1.09,0,1,1,1.08-1.09A1.09,1.09,0,0,1,22.24,31.46Zm0-4.34A1.09,1.09,0,1,1,23.32,26,1.09,1.09,0,0,1,22.24,27.12Zm0-4.34a1.09,1.09,0,1,1,1.08-1.09A1.09,1.09,0,0,1,22.24,22.78Zm0-4.34a1.09,1.09,0,1,1,1.08-1.08A1.09,1.09,0,0,1,22.24,18.44Zm0-4.34A1.09,1.09,0,1,1,23.32,13,1.09,1.09,0,0,1,22.24,14.1Zm0-4.34a1.09,1.09,0,1,1,1.08-1.08A1.09,1.09,0,0,1,22.24,9.76Zm0-4.34a1.09,1.09,0,1,1,1.08-1.08A1.08,1.08,0,0,1,22.24,5.42Zm3.25,23.87a1.09,1.09,0,1,1,1.09-1.09A1.08,1.08,0,0,1,25.49,29.29Zm0-4.34a1.09,1.09,0,1,1,1.09-1.09A1.08,1.08,0,0,1,25.49,25Zm0-4.34a1.09,1.09,0,1,1,1.09-1.08A1.08,1.08,0,0,1,25.49,20.61Zm0-4.34a1.09,1.09,0,1,1,1.09-1.08A1.08,1.08,0,0,1,25.49,16.27Zm0-4.34a1.09,1.09,0,1,1,1.09-1.08A1.08,1.08,0,0,1,25.49,11.93Zm0-4.34a1.09,1.09,0,0,1,0-2.17,1.09,1.09,0,1,1,0,2.17Zm0-4.34a1.09,1.09,0,0,1,0-2.17,1.09,1.09,0,1,1,0,2.17ZM32,50.16l-4.6-4.6L32,41l4.6,4.6Zm6.51-20.87a1.09,1.09,0,1,1,1.08-1.09A1.09,1.09,0,0,1,38.51,29.29Zm0-4.34a1.09,1.09,0,1,1,1.08-1.09A1.09,1.09,0,0,1,38.51,25Zm0-4.34a1.09,1.09,0,1,1,1.08-1.08A1.09,1.09,0,0,1,38.51,20.61Zm0-4.34a1.09,1.09,0,1,1,1.08-1.08A1.09,1.09,0,0,1,38.51,16.27Zm0-4.34a1.09,1.09,0,1,1,1.08-1.08A1.09,1.09,0,0,1,38.51,11.93Zm0-4.34a1.09,1.09,0,1,1,1.08-1.08A1.08,1.08,0,0,1,38.51,7.59Zm0-4.34a1.09,1.09,0,1,1,1.08-1.08A1.08,1.08,0,0,1,38.51,3.25Zm3.25,28.21a1.09,1.09,0,1,1,1.09-1.09A1.09,1.09,0,0,1,41.76,31.46Zm0-4.34A1.09,1.09,0,1,1,42.85,26,1.09,1.09,0,0,1,41.76,27.12Zm0-4.34a1.09,1.09,0,1,1,1.09-1.09A1.09,1.09,0,0,1,41.76,22.78Zm0-4.34a1.09,1.09,0,1,1,1.09-1.08A1.09,1.09,0,0,1,41.76,18.44Zm0-4.34A1.09,1.09,0,1,1,42.85,13,1.09,1.09,0,0,1,41.76,14.1Zm0-4.34a1.09,1.09,0,1,1,1.09-1.08A1.09,1.09,0,0,1,41.76,9.76Zm0-4.34a1.09,1.09,0,1,1,1.09-1.08A1.08,1.08,0,0,1,41.76,5.42Z"/>
    </g>
  </g>
</svg>
