<svg xmlns="http://www.w3.org/2000/svg" width="30.999" height="65" viewBox="0 0 30.999 65">
  <g id="Group_36" data-name="Group 36" transform="translate(-35.5 -86.497)">
    <g id="Group_5" data-name="Group 5" transform="translate(36 86.997)">
      <path id="Path_1" data-name="Path 1" d="M61.859,90.12l-.21-.13a20.614,20.614,0,0,0-21.589.12A8.76,8.76,0,0,0,36,97.51v29.939a3.133,3.133,0,0,0,2.06,2.96,1.1,1.1,0,0,0-.02.18v9.77a.99.99,0,0,0,1,1h1.07V150a1,1,0,0,0,1,1h.08a1,1,0,0,0,1-1v-8.64h2.85V150a1,1,0,0,0,1,1h.07a1,1,0,0,0,1-1v-8.64h2.85V150a1,1,0,0,0,1,1h.08a1,1,0,0,0,1-1v-8.64h2.85V150a1,1,0,0,0,1,1h.07a1,1,0,0,0,1-1v-8.64h2.85V150a1,1,0,0,0,1,1h.08a1,1,0,0,0,1-1v-8.64h1.07a.99.99,0,0,0,1-1v-9.77a1.1,1.1,0,0,0-.02-.18,3.133,3.133,0,0,0,2.06-2.96V97.56A8.737,8.737,0,0,0,61.859,90.12ZM64,127.448a1.107,1.107,0,0,1-1.07,1.14h-4.15V104.819a2.006,2.006,0,0,0-2-2h-1.19a2.006,2.006,0,0,0-2,2v23.769h-5.18V104.819a2.006,2.006,0,0,0-2-2H45.22a2.006,2.006,0,0,0-2,2v23.769H39.07a1.107,1.107,0,0,1-1.07-1.14V97.51a6.715,6.715,0,0,1,3.12-5.7,18.6,18.6,0,0,1,19.5-.1l.21.12A6.727,6.727,0,0,1,64,97.56Z" transform="translate(-36 -86.997)" fill="#757a8d" stroke="#2b2f34" stroke-width="1"/>
    </g>
  </g>
</svg>
