<svg xmlns="http://www.w3.org/2000/svg" width="41.796" height="64" viewBox="0 0 41.796 64">
  <path id="Path_17" data-name="Path 17" d="M59.143,30.816H58.49V8.612A2.62,2.62,0,0,0,55.878,6H21.918a2.62,2.62,0,0,0-2.612,2.612v22.2h-.653a.647.647,0,0,0-.653.653v7.837a.647.647,0,0,0,.653.653h.653V67.388A2.62,2.62,0,0,0,21.918,70H55.878a2.62,2.62,0,0,0,2.612-2.612V39.959h.653a.647.647,0,0,0,.653-.653V31.469A.647.647,0,0,0,59.143,30.816ZM32.328,26.193a2.571,2.571,0,0,1-.078.457,2.752,2.752,0,0,1-.118.47,1.928,1.928,0,0,1-.17.457,4.246,4.246,0,0,1-1.1,1.633c0,.013-.026.039-.039.052s-.026.039-.052.052c0,.026-.026.039-.052.052l-.039.039a1.3,1.3,0,0,1-.2.183,3.926,3.926,0,0,1-.64.457,1.763,1.763,0,0,1-.34.2,1.6,1.6,0,0,1-.34.157,2.064,2.064,0,0,1-.47.183,5.321,5.321,0,0,1-.758.183,4.849,4.849,0,0,1-2.364-.157,3.467,3.467,0,0,1-.483-.157c-.144-.065-.3-.131-.444-.209l-.013-.013a5.213,5.213,0,0,1-1.241-.914,5.216,5.216,0,0,1-.81-6.348l3.579,3.579.94-.953.9-.9-2.168-2.155-1.411-1.411c.026-.013.065-.026.091-.039a2.344,2.344,0,0,1,.509-.261.11.11,0,0,1,.078-.026,3.448,3.448,0,0,1,.614-.222l.118-.039v.013a5.061,5.061,0,0,1,2.612.026v-.039a5.213,5.213,0,0,1,3.918,5.055A4.493,4.493,0,0,1,32.328,26.193ZM38.9,60.857a5.224,5.224,0,1,1,5.224-5.224A5.223,5.223,0,0,1,38.9,60.857ZM37.592,45.184A1.306,1.306,0,1,1,38.9,46.49,1.31,1.31,0,0,1,37.592,45.184Zm5.055-27.624a4.772,4.772,0,0,1-.392.353,4.355,4.355,0,0,1-.418.313h-.013a2.624,2.624,0,0,1-.444.261,2.083,2.083,0,0,1-.353.157,2.329,2.329,0,0,1-.47.183h-.013c-.026.013-.039.026-.052.026a2.176,2.176,0,0,1-.392.1,2.352,2.352,0,0,1-.418.078,4.432,4.432,0,0,1-.718.052,2.389,2.389,0,0,1-.431-.026,2.428,2.428,0,0,1-.431-.052,5.321,5.321,0,0,1-.758-.183,2.064,2.064,0,0,1-.47-.183,1.6,1.6,0,0,1-.34-.157,1.763,1.763,0,0,1-.34-.2c-.013,0-.013-.013-.026-.013a.74.74,0,0,1-.17-.1.793.793,0,0,1-.131-.091.229.229,0,0,1-.065-.052,1.09,1.09,0,0,1-.209-.157l-.039-.039a1.563,1.563,0,0,1-.34-.313l-.065-.065a3.861,3.861,0,0,1-.313-.34,2.1,2.1,0,0,1-.274-.392.5.5,0,0,1-.1-.144,3.026,3.026,0,0,1-.274-.5,5.3,5.3,0,0,1-.392-1.136,3.433,3.433,0,0,1-.078-.509,4.493,4.493,0,0,1-.039-.6,5.213,5.213,0,0,1,3.918-5.055v.039A5.061,5.061,0,0,1,40.2,8.8V8.782l.118.039a3.448,3.448,0,0,1,.614.222.11.11,0,0,1,.078.026,2.344,2.344,0,0,1,.509.261c.026.013.065.026.091.039L40.2,10.78l-2.168,2.155.9.9.94.953,3.579-3.579A5.216,5.216,0,0,1,42.647,17.559ZM50,30.163a5.222,5.222,0,0,1-1.306-10.279v5.055h2.612V19.884A5.222,5.222,0,0,1,50,30.163Z" transform="translate(-18 -6)" fill="#757a8d"/>
</svg>
