<svg xmlns="http://www.w3.org/2000/svg" width="64" height="60.594" viewBox="0 0 64 60.594">
  <g id="Group_37" data-name="Group 37" transform="translate(-1.37 -3)">
    <g id="Group_7" data-name="Group 7" transform="translate(1.37 3)">
      <path id="Path_2" data-name="Path 2" d="M59.624,7.7H45.813a1.523,1.523,0,0,0-1.389-1.034C43.138,5.079,40.171,3,33.37,3S23.6,5.079,22.317,6.667A1.523,1.523,0,0,0,20.927,7.7H7.116A5.749,5.749,0,0,0,1.37,13.447v44.4a5.749,5.749,0,0,0,5.746,5.746H59.624a5.749,5.749,0,0,0,5.746-5.746v-44.4A5.749,5.749,0,0,0,59.624,7.7ZM33.37,6.134a18.082,18.082,0,0,1,5.892.815,1.428,1.428,0,0,0-.575.752H28.052a1.553,1.553,0,0,0-.564-.752A18.057,18.057,0,0,1,33.37,6.134ZM8.3,57.326a1.045,1.045,0,1,1,1.045-1.045A1.048,1.048,0,0,1,8.3,57.326Zm0-8.358a1.045,1.045,0,1,1,1.045-1.045A1.048,1.048,0,0,1,8.3,48.968Zm0-8.358a1.045,1.045,0,1,1,1.045-1.045A1.048,1.048,0,0,1,8.3,40.61Zm0-8.358a1.045,1.045,0,1,1,1.045-1.045A1.048,1.048,0,0,1,8.3,32.252Zm4.179,20.895A1.045,1.045,0,1,1,13.52,52.1,1.048,1.048,0,0,1,12.475,53.147Zm0-8.358a1.045,1.045,0,1,1,1.045-1.045A1.048,1.048,0,0,1,12.475,44.789Zm0-8.358a1.045,1.045,0,1,1,1.045-1.045A1.048,1.048,0,0,1,12.475,36.431Zm0-8.358a1.045,1.045,0,1,1,1.045-1.045A1.048,1.048,0,0,1,12.475,28.073Zm4.179,29.252A1.045,1.045,0,1,1,17.7,56.281,1.048,1.048,0,0,1,16.654,57.326Zm0-8.358A1.045,1.045,0,1,1,17.7,47.923,1.048,1.048,0,0,1,16.654,48.968Zm0-8.358A1.045,1.045,0,1,1,17.7,39.565,1.048,1.048,0,0,1,16.654,40.61Zm0-8.358A1.045,1.045,0,1,1,17.7,31.208,1.048,1.048,0,0,1,16.654,32.252Zm4.179,20.895A1.045,1.045,0,1,1,21.878,52.1,1.048,1.048,0,0,1,20.833,53.147Zm0-8.358a1.045,1.045,0,1,1,1.045-1.045A1.048,1.048,0,0,1,20.833,44.789Zm0-8.358a1.045,1.045,0,1,1,1.045-1.045A1.048,1.048,0,0,1,20.833,36.431Zm0-8.358a1.045,1.045,0,1,1,1.045-1.045A1.048,1.048,0,0,1,20.833,28.073Zm4.179,29.252a1.045,1.045,0,1,1,1.045-1.045A1.048,1.048,0,0,1,25.012,57.326Zm0-8.358a1.045,1.045,0,1,1,1.045-1.045A1.048,1.048,0,0,1,25.012,48.968Zm0-8.358a1.045,1.045,0,1,1,1.045-1.045A1.048,1.048,0,0,1,25.012,40.61Zm0-8.358a1.045,1.045,0,1,1,1.045-1.045A1.048,1.048,0,0,1,25.012,32.252Zm4.179,20.895A1.045,1.045,0,1,1,30.236,52.1,1.048,1.048,0,0,1,29.191,53.147Zm0-8.358a1.045,1.045,0,1,1,1.045-1.045A1.048,1.048,0,0,1,29.191,44.789Zm0-8.358a1.045,1.045,0,1,1,1.045-1.045A1.048,1.048,0,0,1,29.191,36.431Zm0-8.358a1.045,1.045,0,1,1,1.045-1.045A1.048,1.048,0,0,1,29.191,28.073ZM33.37,57.326a1.045,1.045,0,1,1,1.045-1.045A1.048,1.048,0,0,1,33.37,57.326Zm0-8.358a1.045,1.045,0,1,1,1.045-1.045A1.048,1.048,0,0,1,33.37,48.968Zm0-8.358a1.045,1.045,0,1,1,1.045-1.045A1.048,1.048,0,0,1,33.37,40.61Zm0-8.358a1.045,1.045,0,1,1,1.045-1.045A1.048,1.048,0,0,1,33.37,32.252Zm4.179,20.895A1.045,1.045,0,1,1,38.594,52.1,1.048,1.048,0,0,1,37.549,53.147Zm0-8.358a1.045,1.045,0,1,1,1.045-1.045A1.048,1.048,0,0,1,37.549,44.789Zm0-8.358a1.045,1.045,0,1,1,1.045-1.045A1.048,1.048,0,0,1,37.549,36.431Zm0-8.358a1.045,1.045,0,1,1,1.045-1.045A1.048,1.048,0,0,1,37.549,28.073Zm4.179,29.252a1.045,1.045,0,1,1,1.045-1.045A1.048,1.048,0,0,1,41.728,57.326Zm0-8.358a1.045,1.045,0,1,1,1.045-1.045A1.048,1.048,0,0,1,41.728,48.968Zm0-8.358a1.045,1.045,0,1,1,1.045-1.045A1.048,1.048,0,0,1,41.728,40.61Zm0-8.358a1.045,1.045,0,1,1,1.045-1.045A1.048,1.048,0,0,1,41.728,32.252Zm4.179,20.895A1.045,1.045,0,1,1,46.951,52.1,1.048,1.048,0,0,1,45.907,53.147Zm0-8.358a1.045,1.045,0,1,1,1.045-1.045A1.048,1.048,0,0,1,45.907,44.789Zm0-8.358a1.045,1.045,0,1,1,1.045-1.045A1.048,1.048,0,0,1,45.907,36.431Zm0-8.358a1.045,1.045,0,1,1,1.045-1.045A1.048,1.048,0,0,1,45.907,28.073Zm4.179,29.252a1.045,1.045,0,1,1,1.045-1.045A1.048,1.048,0,0,1,50.086,57.326Zm0-8.358a1.045,1.045,0,1,1,1.045-1.045A1.048,1.048,0,0,1,50.086,48.968Zm0-8.358a1.045,1.045,0,1,1,1.045-1.045A1.048,1.048,0,0,1,50.086,40.61Zm0-8.358a1.045,1.045,0,1,1,1.045-1.045A1.048,1.048,0,0,1,50.086,32.252Zm4.179,20.895A1.045,1.045,0,1,1,55.309,52.1,1.048,1.048,0,0,1,54.265,53.147Zm0-8.358a1.045,1.045,0,1,1,1.045-1.045A1.048,1.048,0,0,1,54.265,44.789Zm0-8.358a1.045,1.045,0,1,1,1.045-1.045A1.048,1.048,0,0,1,54.265,36.431Zm0-8.358a1.045,1.045,0,1,1,1.045-1.045A1.048,1.048,0,0,1,54.265,28.073Zm4.179,29.252a1.045,1.045,0,1,1,1.045-1.045A1.048,1.048,0,0,1,58.443,57.326Zm0-8.358a1.045,1.045,0,1,1,1.045-1.045A1.048,1.048,0,0,1,58.443,48.968Zm0-8.358a1.045,1.045,0,1,1,1.045-1.045A1.048,1.048,0,0,1,58.443,40.61Zm0-8.358a1.045,1.045,0,1,1,1.045-1.045A1.048,1.048,0,0,1,58.443,32.252Zm3.792-12.014H4.5V13.447a2.613,2.613,0,0,1,2.612-2.612H59.624a2.613,2.613,0,0,1,2.612,2.612Z" transform="translate(-1.37 -3)" fill="#757a8d"/>
    </g>
    <g id="Group_8" data-name="Group 8" transform="translate(4.053 13.393)">
      <circle id="Ellipse_1" data-name="Ellipse 1" cx="1.046" cy="1.046" r="1.046" transform="translate(0 0.261)" fill="#757a8d"/>
      <circle id="Ellipse_2" data-name="Ellipse 2" cx="1.046" cy="1.046" r="1.046" transform="translate(44.527 0.261)" fill="#757a8d"/>
      <circle id="Ellipse_3" data-name="Ellipse 3" cx="1.046" cy="1.046" r="1.046" transform="translate(40.269 0.261)" fill="#757a8d"/>
      <circle id="Ellipse_4" data-name="Ellipse 4" cx="1.046" cy="1.046" r="1.046" transform="translate(32.217 0.261)" fill="#757a8d"/>
      <circle id="Ellipse_5" data-name="Ellipse 5" cx="1.046" cy="1.046" r="1.046" transform="translate(24.154 0.261)" fill="#757a8d"/>
      <rect id="Rectangle_13" data-name="Rectangle 13" width="1.569" height="2.615" transform="translate(16.509)" fill="#757a8d"/>
      <rect id="Rectangle_14" data-name="Rectangle 14" width="1.569" height="2.615" transform="translate(56.281)" fill="#757a8d"/>
      <rect id="Rectangle_15" data-name="Rectangle 15" width="1.569" height="2.615" transform="translate(12.78)" fill="#757a8d"/>
    </g>
  </g>
</svg>
